# xmcd
#
# Track frame offsets:
#	150
#	13465
#	22708
#	38119
#	57484
#
# Disc length: 941 seconds
#
# Revision: 0
# Processed by: cddbd v1.5.2PL0 Copyright (c) Steve Scherf et al.
# Submitted via: audiograbber 1.83.01
#
DISCID=3803ab05
DTITLE=Engrained - Anger, Roots And Rock 'n' Roll
DYEAR=2010
DGENRE=Rock
TTITLE0=Traitor
TTITLE1=Pretty City
TTITLE2=Leave You Behind
TTITLE3=Rock n Roll Scum
TTITLE4=Plastic Bomb
EXTD=
EXTT0=
EXTT1=
EXTT2=
EXTT3=
EXTT4=
PLAYORDER=
